<svg xmlns="http://www.w3.org/2000/svg" viewBox="0 0 163.17 228.13">
  <g>
    <path d="M4.84,207.76H8.69l2.88-15,2.87,15H18.3l4.87-23.68H19.35l-3,15.39-2.91-15.39H9.84L6.93,199.47,4,184.08H0l4.84,23.68Zm16.54,0h3.79l.84-4.43h5.28l.84,4.43h3.93l-4.77-23.68H26.15l-4.77,23.68Zm5.34-8.09,1.93-10.11,1.93,10.11Zm19.49,8.09h4.22l-4.16-10a7.37,7.37,0,0,0,3.28-6.32c0-4.6-3.58-7.31-8.65-7.31H37.31v23.68h3.82v-7.68l.44-.13c.48-.14.91-.31,1.35-.48l3.29,8.29Zm-.44-16.37c0,2.2-1.49,3.65-4.06,4.56l-.58.21v-8.43c3.08.14,4.64,1.56,4.64,3.66Zm5.81,16.37H55.3V193.05l6.16,14.71h3.76V184.08H61.49V198.8l-6.15-14.72H51.58v23.68Zm16.21,0H79.05v-3.65H71.61v-6.7h5.58v-3.76H71.61v-5.92h6.7l.74-3.65H67.79v23.68Zm21.88,0H93.9l-4.16-10A7.37,7.37,0,0,0,93,191.39c0-4.6-3.59-7.31-8.66-7.31H80.77v23.68H84.6v-7.68L85,200c.47-.14.91-.31,1.35-.48l3.28,8.29Zm-.44-16.37c0,2.2-1.49,3.65-4.06,4.56l-.57.21v-8.43c3.07.14,4.63,1.56,4.63,3.66ZM113.82,200a5.39,5.39,0,0,0-3.75-5.35,5.8,5.8,0,0,0,2.2-4.29c0-3.82-3.29-6.26-8.39-6.26h-3.25v23.68h3.31c6,0,9.88-3.28,9.88-7.78Zm-5.27-9.34c0,1.66-1.26,3-3.52,3.49l-.61.13V187.7c2.57.07,4.13,1.18,4.13,2.94Zm-3,6.87c2.47-.61,4.46.37,4.46,2.5,0,2.44-2.33,4.16-5.61,4.16v-6.39l1.15-.27Zm19,10.25h4.23l-4.16-10a7.37,7.37,0,0,0,3.28-6.32c0-4.6-3.59-7.31-8.66-7.31h-3.59v23.68h3.82v-7.68l.44-.13c.48-.14.92-.31,1.36-.48l3.28,8.29Zm-.44-16.37c0,2.2-1.49,3.65-4.06,4.56l-.58.21v-8.43c3.08.14,4.64,1.56,4.64,3.66Zm12.65,16.67c4.63,0,7.44-4,7.44-12.14s-2.84-12.18-7.44-12.18-7.44,4-7.44,12.18,2.81,12.14,7.44,12.14Zm0-3.68c-2.2,0-3.59-2.78-3.59-8.46s1.39-8.49,3.59-8.49,3.58,2.81,3.58,8.49-1.38,8.46-3.58,8.46Zm8.19-1.93c1.18,3.79,3.55,5.55,6.76,5.55a6.42,6.42,0,0,0,6.39-6.53c0-2.61-1.15-4.6-3.58-6.4L152,193.18c-1.52-1.12-2.27-2.27-2.27-3.55a2,2,0,0,1,2-2.1c1.59,0,2.43,1.25,3,3.21l3.28-2c-1.11-3.48-3.21-4.94-6.08-4.94A5.9,5.9,0,0,0,146,189.9a7.22,7.22,0,0,0,3.21,6L152,198c1.42,1.08,2.37,2.26,2.37,3.75a2.49,2.49,0,0,1-2.51,2.54c-1.93,0-3-1.42-3.69-3.79L145,202.45ZM160.91,208a2.28,2.28,0,0,0,2.26-2.26,2.27,2.27,0,1,0-4.53,0,2.27,2.27,0,0,0,2.27,2.26Z" style="fill: #3d5588"/>
    <path d="M47.11,6.31a1,1,0,0,0-.7.88L44.84,14l-13,3.5c-.35.08-.44.35-.52.7l-1.75,7.17L17,28.7c-.35.09-.52.35-.7,1.05a90.78,90.78,0,0,0-1.57,17c0,50.37,26.24,94.1,65.42,120.16a3.42,3.42,0,0,0,1.4.7,3.48,3.48,0,0,0,1.4-.7c39.18-26.06,65.41-69.79,65.41-120.16a89.94,89.94,0,0,0-1.57-17c-.17-.7-.35-1-.7-1.05l-12.59-3.32-1.75-7.17c-.09-.35-.18-.62-.53-.7L118.3,14l-1.57-6.82a1,1,0,0,0-.7-.88L82.4.08a4.27,4.27,0,0,0-1.67,0Z" style="fill: #1a72c3"/>
    <path d="M87.16,143.89C120,113.46,130,90.9,130,77.26c0-7.7-3-13.47-10.67-15.56a23.76,23.76,0,0,0,6.12-15.92c0-14.16-15-24-38.47-25.53a.47.47,0,0,0-.53.52V143.71c0,.35.35.53.7.18Zm-10.49-.18V20.77a.46.46,0,0,0-.52-.52,70.4,70.4,0,0,0-8.75,1.57c-.7.18-.87.53-.87,1.23l.35,62.78c0,7.87,0,14.34.35,21.68,0,.53-.53.7-.7.18C60.06,87.58,57.09,62.4,57.61,26c0-.7-.17-.87-1-.52a60.16,60.16,0,0,0-8.39,4.37c-.53.35-.7.7-.7,1.57-.53,25,1.57,46.69,5.24,63l-1.92,1.22c-.7.53-1.22.53-1.75-.52-6.12-13.64-10-34.45-10-56.84,0-.87-.52-1.22-1-.7a83.58,83.58,0,0,0-7.69,8,3.12,3.12,0,0,0-.87,2.27C30,66.07,35.75,92,44.67,107.69c1,1.92,2.45,2.45,4.2,1.22l6.64-4.2C59.88,119.4,66.35,132.87,76,143.89c.35.35.7.17.7-.18ZM96.43,31.79c10.67.7,18.71,6.47,18.71,13.47,0,7.34-5.24,15.21-18.71,23.08V31.79Zm17.32,39.7c3.32,0,5.59,2.8,5.59,7.69,0,7-5.07,20.64-22.91,40.57V80.23c10.32-7.34,13.64-8.74,17.32-8.74Z" style="fill: #fff"/>
    <g>
      <path d="M57.62,228.11a6,6,0,0,1-2.23-.41,5.12,5.12,0,0,1-1.76-1.15,5.06,5.06,0,0,1-1.17-1.81,6.77,6.77,0,0,1-.41-2.39,6.37,6.37,0,0,1,.43-2.4,5.45,5.45,0,0,1,1.18-1.82A5.16,5.16,0,0,1,55.43,217a5.78,5.78,0,0,1,2.2-.41,6.49,6.49,0,0,1,2.74.56,4.21,4.21,0,0,1,2,1.76L60,220.79a3,3,0,0,0-1-1.14,2.51,2.51,0,0,0-1.39-.4,2.18,2.18,0,0,0-.94.2,2.38,2.38,0,0,0-.8.58,2.8,2.8,0,0,0-.54,1,4.16,4.16,0,0,0-.2,1.37,4.24,4.24,0,0,0,.2,1.34,2.85,2.85,0,0,0,.57,1,2.26,2.26,0,0,0,.82.59,2.43,2.43,0,0,0,1,.2,2.23,2.23,0,0,0,1.41-.41,2.07,2.07,0,0,0,.76-1.16H57.38v-2.18H63v.59a7.16,7.16,0,0,1-.41,2.5,5.18,5.18,0,0,1-1.14,1.81,4.39,4.39,0,0,1-1.71,1.1A6,6,0,0,1,57.62,228.11Z" style="fill: #3d5588"/>
      <path d="M67,216.73h4.18L74.86,228H71.65L71,225.83H67.11L66.47,228H63.29Zm.77,6.79H70.3L69,219.36Z" style="fill: #3d5588"/>
      <path d="M83.16,228H81.62L79,220.12V228H76.24V216.73h4.31l1.89,5.76,1.91-5.76h4.29V228H85.85v-7.89Z" style="fill: #3d5588"/>
      <path d="M91.05,228V216.73h8.59l-.56,2.52H94v2h4.73v2.28H94v2h5.61V228Z" style="fill: #3d5588"/>
      <path d="M101.21,220.12a3.14,3.14,0,0,1,1.17-2.58,4.79,4.79,0,0,1,3.12-1,7.09,7.09,0,0,1,2.75.51,5,5,0,0,1,2,1.53l-1.94,2a3.91,3.91,0,0,0-1.19-1.13,3.1,3.1,0,0,0-1.73-.48,1.44,1.44,0,0,0-.86.23.68.68,0,0,0-.31.58.69.69,0,0,0,.28.54,3,3,0,0,0,1,.47l1.61.48a5.6,5.6,0,0,1,2.57,1.37,2.68,2.68,0,0,1,.72,1.82,3.47,3.47,0,0,1-.29,1.4,3.19,3.19,0,0,1-.86,1.15,4.28,4.28,0,0,1-1.47.78,6.67,6.67,0,0,1-2,.29,7.27,7.27,0,0,1-2.94-.56,4.87,4.87,0,0,1-2-1.55l1.91-2a4.54,4.54,0,0,0,1.27,1.2,3.43,3.43,0,0,0,1.86.48,1.74,1.74,0,0,0,1.09-.27.75.75,0,0,0,.34-.58.67.67,0,0,0-.28-.56,2.34,2.34,0,0,0-.81-.4l-2-.65A4.67,4.67,0,0,1,101.9,222,2.83,2.83,0,0,1,101.21,220.12Z" style="fill: #3d5588"/>
    </g>
    <path d="M101.09,166.62l-1-2.55h-.78v3.49h.54v-2.72l1.1,2.72h.31l1.1-2.72v2.72h.54v-3.49h-.77Zm-5.39-2H97v2.94h.6v-2.94h1.28v-.55H95.7Z" style="fill: #1a72c3"/>
  </g>
</svg>
